<?xml version="1.0" encoding="utf-8"?>
<!-- Generator: Adobe Illustrator 24.0.0, SVG Export Plug-In . SVG Version: 6.00 Build 0)  -->
<svg version="1.1" id="Layer_1" xmlns="http://www.w3.org/2000/svg" xmlns:xlink="http://www.w3.org/1999/xlink" x="0px" y="0px"
	 viewBox="0 0 24 24" style="enable-background:new 0 0 24 24;" xml:space="preserve">
<path d="M22.1,15.6V3.8c0-1-0.8-1.9-1.9-1.9H3.8c-1,0-1.9,0.8-1.9,1.9v16.5c0,1,0.8,1.9,1.9,1.9h16.5c1,0,1.9-0.8,1.9-1.9
	c0-0.5,0.4-0.9,0.9-0.9s0.9,0.4,0.9,0.9c0,2.1-1.7,3.8-3.8,3.8H3.8C1.7,24,0,22.3,0,20.3V3.8C0,1.7,1.7,0,3.8,0h16.5
	C22.3,0,24,1.7,24,3.8v11.8c0,0.5-0.4,0.9-0.9,0.9S22.1,16.1,22.1,15.6z M11.1,8.9v9.5c0,0.5,0.4,0.9,0.9,0.9s0.9-0.4,0.9-0.9V8.9
	C12.9,8.4,12.5,8,12,8S11.1,8.4,11.1,8.9z M12,4.7c-0.5,0-0.9,0.4-0.9,0.9s0.4,0.9,0.9,0.9s0.9-0.4,0.9-0.9S12.5,4.7,12,4.7z"/>
</svg>
