<?xml version="1.0" encoding="utf-8"?>
<!-- Generator: Adobe Illustrator 24.0.0, SVG Export Plug-In . SVG Version: 6.00 Build 0)  -->
<svg version="1.1" id="Capa_1" xmlns="http://www.w3.org/2000/svg" xmlns:xlink="http://www.w3.org/1999/xlink" x="0px" y="0px"
	 viewBox="0 0 24 24" style="enable-background:new 0 0 24 24;" xml:space="preserve">
<g>
	<g>
		<path d="M21.5,19.8L20.4,6.3c-0.1-0.9-0.8-1.6-1.7-1.6h-2.1V4.6C16.6,2.1,14.6,0,12,0S7.4,2.1,7.4,4.6v0.1H5.2
			c-0.9,0-1.6,0.7-1.7,1.5L2.5,19.8c-0.1,1.1,0.3,2.2,1,3S5.3,24,6.4,24h11.2c1.1,0,2.1-0.5,2.9-1.3C21.2,22,21.6,20.9,21.5,19.8z
			 M8.8,4.6c0-1.8,1.5-3.2,3.2-3.2s3.2,1.5,3.2,3.2v0.1L8.8,4.6L8.8,4.6z M19.4,21.8c-0.5,0.5-1.1,0.8-1.8,0.8H6.4
			c-0.7,0-1.4-0.3-1.8-0.8c-0.5-0.5-0.7-1.2-0.7-1.9L5,6.4c0-0.1,0.1-0.3,0.3-0.3h2.1v1.7c0,0.4,0.3,0.7,0.7,0.7
			c0.4,0,0.7-0.3,0.7-0.7V6.1h6.5v1.7c0,0.4,0.3,0.7,0.7,0.7s0.7-0.3,0.7-0.7V6.1h2.1c0.1,0,0.3,0.1,0.3,0.3l1.1,13.5
			C20.2,20.6,19.9,21.3,19.4,21.8z"/>
	</g>
</g>
<g>
	<g>
		<path d="M15.2,11.9c-0.3-0.3-0.7-0.3-1,0L11,15.1l-1.2-1.2c-0.3-0.3-0.7-0.3-1,0s-0.3,0.7,0,1l1.7,1.7c0.1,0.1,0.3,0.2,0.5,0.2
			s0.4-0.1,0.5-0.2l3.6-3.6C15.4,12.6,15.4,12.2,15.2,11.9z"/>
	</g>
</g>
</svg>
