<?xml version="1.0" encoding="utf-8"?>
<!-- Generator: Adobe Illustrator 24.0.0, SVG Export Plug-In . SVG Version: 6.00 Build 0)  -->
<svg version="1.1" id="Layer_1" xmlns="http://www.w3.org/2000/svg" xmlns:xlink="http://www.w3.org/1999/xlink" x="0px" y="0px"
	 viewBox="0 0 24 24" style="enable-background:new 0 0 24 24;" xml:space="preserve">
<path d="M9.6,21.9v2.4L9,23.9c-0.1-0.1-2.3-1.8-4.4-4.3C1.5,16,0,12.9,0,10.3V10c0-5.3,4.3-9.6,9.6-9.6s9.6,4.3,9.6,9.6v0.3
	c0,0.2,0,0.5,0,0.7l-1.9-1.7c-0.4-3.9-3.7-7-7.7-7c-4.3,0-7.7,3.5-7.7,7.7v0.3C1.9,14.8,7.7,20.2,9.6,21.9z M15.3,20.6h2.8v-2.8
	h-2.8V20.6z M9.6,6c2.2,0,4,1.8,4,4s-1.8,4-4,4s-4-1.8-4-4S7.4,6,9.6,6z M9.6,7.9c-1.2,0-2.1,0.9-2.1,2.1c0,1.2,0.9,2.1,2.1,2.1
	c1.2,0,2.1-0.9,2.1-2.1C11.7,8.8,10.7,7.9,9.6,7.9z M22.7,19.3l-0.5-0.5v3c0,1.4-1.1,2.5-2.5,2.5h-5.9c-1.4,0-2.5-1.1-2.5-2.5v-3
	l-0.5,0.5l-1.3-1.4l7.3-6.6l7.3,6.6L22.7,19.3z M20.3,17.1l-3.6-3.3l-3.6,3.3v4.7c0,0.4,0.3,0.7,0.7,0.7h5.9c0.4,0,0.7-0.3,0.7-0.7
	V17.1z"/>
</svg>
