<?xml version="1.0" encoding="utf-8"?>
<!-- Generator: Adobe Illustrator 24.0.0, SVG Export Plug-In . SVG Version: 6.00 Build 0)  -->
<svg version="1.1" id="Layer_1" xmlns="http://www.w3.org/2000/svg" xmlns:xlink="http://www.w3.org/1999/xlink" x="0px" y="0px"
	 viewBox="0 0 24 24" style="enable-background:new 0 0 24 24;" xml:space="preserve">
<style type="text/css">
	.st0{fill:#999999;}
</style>
<g>
	<g>
		<path class="st0" d="M21.6,9.2L21.6,9.2C21,9,20.5,8.9,20,8.9c0.1-0.3,0.1-0.6,0.1-1c0.1-1.3-0.1-2.5-0.6-3.4
			c-0.6-1.1-1.5-2-2.7-2.4c-2.6-1-4.5-0.2-5.6,0.7c-0.4,0.3-0.8,0.7-1.1,1.1C9.1,2.4,7.3,1.5,5.4,1.5c-2.2,0-4.1,1.3-4.9,3.4
			c-0.9,2.4-0.5,5.2,1,7.2c1.5,2,3.3,3.7,5,5.2l3.5,3.2l0.5-0.4c0.6-0.6,1.3-1.1,2-1.7c0.6,0.6,1.2,1.1,1.8,1.7l2.6,2.4l0.5-0.4
			c1-0.9,2.1-1.8,3.3-3c1.5-1.4,3.2-3,3.3-5.6C24.1,11.5,23.2,9.9,21.6,9.2z M10.1,18.6l-2.6-2.4c-1.7-1.6-3.4-3.1-4.8-5
			C1.4,9.6,1.1,7.4,1.9,5.4C2.4,3.9,3.8,3,5.4,3c0,0,0.1,0,0.1,0c1.7,0,3.2,1,3.9,2.5L10,7l0.7-1.4c0,0,0.5-0.9,1.4-1.6
			c1.2-0.9,2.6-1.1,4.2-0.5c2.3,0.9,2.4,3.4,2.4,4.4c0,0.5-0.1,0.9-0.2,1.4c0,0,0,0,0,0c0,0,0,0-0.1,0c0,0-0.1,0-0.1,0c0,0,0,0,0,0
			c0,0-0.1,0-0.1,0c0,0,0,0,0,0c0,0-0.1,0-0.1,0.1c0,0,0,0,0,0c0,0-0.1,0-0.1,0.1c0,0,0,0,0,0c0,0,0,0-0.1,0c0,0,0,0,0,0
			c0,0,0,0-0.1,0.1c0,0,0,0,0,0c0,0,0,0-0.1,0.1c0,0,0,0,0,0c0,0-0.1,0.1-0.1,0.1c0,0,0,0,0,0c0,0-0.1,0-0.1,0.1c0,0,0,0,0,0
			c0,0,0,0-0.1,0.1c0,0,0,0,0,0c0,0,0,0-0.1,0.1c0,0,0,0,0,0c0,0,0,0-0.1,0.1c0,0,0,0,0,0c0,0-0.1,0.1-0.1,0.1
			c-0.8-0.9-1.9-1.5-3.2-1.5c0,0-0.1,0-0.1,0c-0.3,0-0.5,0-0.7,0.1c-0.1,0-0.2,0-0.3,0.1c-0.1,0-0.2,0.1-0.3,0.1
			c-0.1,0-0.2,0.1-0.3,0.1c0,0-0.1,0-0.1,0.1c-0.9,0.4-1.5,1.1-1.9,2.1c-0.1,0.3-0.2,0.7-0.3,1c-0.3,1.5,0.1,3,1,4.2
			c0.1,0.1,0.1,0.1,0.2,0.2c0,0,0,0,0,0.1c0,0,0.1,0.1,0.1,0.1c0,0,0,0,0.1,0.1c0,0,0.1,0.1,0.1,0.1c0,0,0,0,0.1,0.1
			c0,0.1,0.1,0.1,0.1,0.2c0,0,0,0,0,0C11,17.8,10.5,18.2,10.1,18.6z M22.5,13.4c-0.1,1.9-1.3,3.1-2.9,4.6c-1,0.9-1.9,1.7-2.8,2.5
			L15.3,19c-0.8-0.7-1.5-1.4-2.2-2.1c-0.4-0.4-0.8-0.9-1.1-1.3c-0.8-1.1-1-2.5-0.5-3.8c0.4-0.9,1.2-1.5,2.2-1.5c0,0,0.1,0,0.1,0
			c0,0,0,0,0,0c0,0,0,0,0.1,0c0,0,0,0,0,0c0,0,0.1,0,0.1,0c0,0,0,0,0,0c0,0,0.1,0,0.1,0c0,0,0,0,0,0c0.8,0.1,1.4,0.5,1.9,1.1
			c0,0,0,0,0,0c0,0,0,0,0,0.1c0,0,0,0,0,0c0,0,0,0,0,0.1c0,0,0,0,0,0c0,0,0,0,0,0.1c0,0,0,0,0,0c0,0,0,0,0,0.1c0,0,0,0,0,0
			c0,0,0,0.1,0,0.1l0.6,1.5l0.7-1.4c0,0,0-0.1,0.1-0.1c0,0,0-0.1,0.1-0.1c0,0,0,0,0,0c0.3-0.4,0.8-1,1.5-1.2
			c0.5-0.2,1.2-0.1,1.8,0.1l0,0C22.5,11.2,22.6,12.7,22.5,13.4z"/>
	</g>
</g>
</svg>
