<?xml version="1.0" encoding="utf-8"?>
<!-- Generator: Adobe Illustrator 24.0.0, SVG Export Plug-In . SVG Version: 6.00 Build 0)  -->
<svg version="1.1" id="Layer_1" xmlns="http://www.w3.org/2000/svg" xmlns:xlink="http://www.w3.org/1999/xlink" x="0px" y="0px"
	 viewBox="0 0 24 24" style="enable-background:new 0 0 24 24;" xml:space="preserve">
<g>
	<path d="M6.5,5.1C6.9,2.8,7.4,0.6,10.2,0C8.7,1.4,7.8,3.1,7.6,5.1c0.3,0,0.6,0,0.9,0c0.3,0,0.4-0.1,0.5-0.4C9.2,3.8,9.4,2.9,9.8,2
		c0.8-1.6,2.2-2.3,3.8-1.9c1,0.2,1.8,0.8,2.2,1.7c0.4,0.9,0.7,1.9,1,2.9C16.9,5,17,5.1,17.4,5.1c0.5,0,1.1,0,1.6,0
		c1.1,0,1.8,0.6,2,1.7c0.7,4.3,1.3,8.7,1.9,13c0.1,0.7,0.2,1.3,0.3,2c0.2,1.4-0.4,2.2-1.9,2.2c-5.4,0-10.9,0-16.3,0
		c-0.3,0-0.6-0.2-0.8-0.3c0,0-0.1-0.1-0.1-0.1c-0.7-0.9-1.5-1.3-2.6-0.8C1,23,0.7,22.6,0.8,22c0.2-1.5,0.4-3,0.7-4.5
		C2,14,2.5,10.5,3,7.1c0.2-1.4,0.8-1.9,2.3-1.9C5.7,5.1,6,5.1,6.5,5.1z M5.3,23c0.3,0,0.5,0,0.7,0c5.1,0,10.2,0,15.2,0
		c0.9,0,1.1-0.2,0.9-1.1c-0.5-3-0.9-6-1.4-9c-0.3-1.9-0.6-3.9-0.9-5.8c-0.1-0.4-0.2-0.8-0.6-0.8c-0.7,0-1.5,0-2.2,0c0,0.4,0,0.7,0,1
		c0,0.4-0.1,0.6-0.5,0.7c-0.4,0-0.5-0.3-0.5-0.6c0-0.3,0-0.7,0-1c-0.2,0-0.4,0-0.6,0c-1.5,0-3,0-4.5,0c-1.1,0-1.1,0-1.1,1.1
		c0,0.3-0.1,0.6-0.5,0.6c-0.4,0-0.5-0.3-0.5-0.6c0-0.3,0-0.7,0-1c-1,0-1.9,0-2.9,0C5.7,11.8,5.5,17.3,5.3,23z M4.8,6.2
		C4.2,6.3,4.1,6.7,4.1,7.1c-0.6,4.2-1.3,8.4-1.9,12.6c-0.1,0.6-0.2,1.2-0.3,1.8c0.5-0.1,0.9-0.2,1.3-0.1c0.4,0.1,0.6,0.5,1,0.8
		C4.5,16.8,4.6,11.5,4.8,6.2z M13.5,5.1c-0.1-0.4-0.1-0.7-0.2-1c-0.2-0.9-0.5-1.8-1.2-2.4c-0.3-0.3-0.5-0.3-0.7,0
		c-0.9,1-1.2,2.2-1.4,3.5c1,0,2,0,2.9,0C13,5.1,13.2,5.1,13.5,5.1z M15.8,5.1c0-1.8-1.2-4.2-2.7-3.9c0.9,1.1,1.2,2.5,1.5,3.9
		C15,5.1,15.4,5.1,15.8,5.1z"/>
	<path d="M13.1,9.5c0.4,0,0.7,0.2,0.6,0.7c-0.1,0.5,0.1,0.9,0.7,1c0.7,0.2,1.2,0.6,1.3,1.4c0.1,0.4,0,0.7-0.4,0.8
		c-0.4,0.1-0.7,0-0.8-0.4c-0.3-0.8-0.9-1.1-1.8-1c-0.5,0.1-0.9,0.3-1,0.8c-0.1,0.6,0.4,0.8,0.8,0.9c0.6,0.2,1.3,0.3,1.9,0.6
		c1.2,0.4,1.7,1,1.6,2.1c0,1-0.7,1.9-1.8,2.1c-0.5,0.1-0.6,0.3-0.6,0.7c0,0.6-0.3,1-0.7,0.9c-0.4,0-0.7-0.4-0.7-0.9
		c0-0.5-0.2-0.7-0.6-0.8c-0.8-0.2-1.2-0.8-1.5-1.5c-0.1-0.4-0.1-0.8,0.4-1c0.5-0.2,0.7,0.1,0.9,0.5c0.5,1,1,1.3,1.9,1.2
		c0.2,0,0.4-0.1,0.6-0.2c0.4-0.2,0.7-0.5,0.6-1c0-0.5-0.3-0.7-0.8-0.9c-0.5-0.1-0.9-0.2-1.4-0.4c-0.4-0.1-0.8-0.3-1.2-0.4
		c-0.7-0.4-1-1-1-1.8c0.1-0.8,0.5-1.4,1.2-1.6c0.6-0.2,0.9-0.5,0.8-1.1C12.3,9.7,12.6,9.5,13.1,9.5z"/>
</g>
</svg>
