<?xml version="1.0" encoding="utf-8"?>
<!-- Generator: Adobe Illustrator 24.0.0, SVG Export Plug-In . SVG Version: 6.00 Build 0)  -->
<svg version="1.1" id="Layer_1" xmlns="http://www.w3.org/2000/svg" xmlns:xlink="http://www.w3.org/1999/xlink" x="0px" y="0px"
	 viewBox="0 0 24 24" style="enable-background:new 0 0 24 24;" xml:space="preserve">
<style type="text/css">
	.st0{fill:#999999;}
</style>
<g>
	<path class="st0" d="M23.9,12c0-6.6-5.3-11.9-11.9-11.9S0.1,5.4,0.1,12c0,6.5,5.3,11.9,11.9,11.9C18.6,23.9,23.9,18.6,23.9,12z
		 M12,1.5c5.8,0,10.5,4.7,10.5,10.5c0,2.1-0.6,4.2-1.8,5.9C16,12.8,8,12.8,3.3,17.9c-1.2-1.7-1.8-3.8-1.8-5.9
		C1.5,6.2,6.2,1.5,12,1.5z M4.1,19c4.2-4.7,11.5-4.7,15.7,0C15.7,23.7,8.3,23.7,4.1,19z"/>
	<path class="st0" d="M12,24c-3.2,0-6.2-1.3-8.5-3.5C1.2,18.2,0,15.2,0,12c0-3.2,1.2-6.2,3.5-8.5S8.8,0,12,0c3.2,0,6.2,1.2,8.5,3.5
		S24,8.8,24,12c0,3.2-1.2,6.2-3.5,8.5C18.2,22.7,15.2,24,12,24z M12,0.1C5.5,0.1,0.1,5.5,0.1,12S5.5,23.9,12,23.9S23.9,18.5,23.9,12
		S18.5,0.1,12,0.1z M12,22.6c-1.5,0-2.9-0.3-4.2-0.9c-1.4-0.6-2.6-1.5-3.7-2.7l0,0l0,0c1-1.2,2.3-2,3.7-2.7c1.3-0.6,2.8-0.9,4.3-0.9
		c0,0,0,0,0,0c1.5,0,2.9,0.3,4.3,0.9c1.4,0.6,2.6,1.5,3.7,2.7l0,0l0,0c-1,1.2-2.3,2-3.7,2.7C14.9,22.3,13.5,22.6,12,22.6z M4.2,19
		c2,2.2,4.8,3.5,7.8,3.5c3,0,5.8-1.3,7.8-3.5c-2-2.2-4.8-3.4-7.8-3.4C9,15.6,6.2,16.8,4.2,19z M20.7,18L20.7,18
		c-2.3-2.5-5.4-3.8-8.7-3.8c-3.3,0-6.4,1.3-8.7,3.8L3.3,18l0-0.1C2,16.2,1.4,14.1,1.4,12C1.4,6.2,6.2,1.4,12,1.4
		c5.8,0,10.6,4.8,10.6,10.6C22.6,14.1,22,16.2,20.7,18L20.7,18z M12,1.5C6.2,1.5,1.5,6.2,1.5,12c0,2.1,0.6,4.1,1.7,5.8
		c1.1-1.2,2.5-2.2,4-2.8c1.5-0.6,3.1-1,4.7-1c0,0,0,0,0,0c1.6,0,3.2,0.3,4.7,1c1.5,0.6,2.9,1.6,4,2.8c1.1-1.7,1.7-3.7,1.7-5.8
		C22.5,6.2,17.8,1.5,12,1.5z"/>
</g>
<g>
	<path class="st0" d="M12,12.7c2.3,0,4.2-1.9,4.2-4.2V7.1c0-2.3-1.9-4.2-4.2-4.2S7.8,4.8,7.8,7.1v1.4C7.8,10.8,9.7,12.7,12,12.7z
		 M9.2,7.1c0-1.5,1.3-2.8,2.8-2.8s2.8,1.3,2.8,2.8v1.4c0,1.5-1.3,2.8-2.8,2.8S9.2,10,9.2,8.5V7.1z"/>
	<path class="st0" d="M12,12.8c-2.4,0-4.3-1.9-4.3-4.3V7.1c0-2.4,1.9-4.3,4.3-4.3s4.3,1.9,4.3,4.3v1.4C16.3,10.9,14.4,12.8,12,12.8z
		 M12,3C9.7,3,7.9,4.8,7.9,7.1v1.4c0,2.3,1.9,4.1,4.1,4.1s4.1-1.9,4.1-4.1V7.1C16.1,4.8,14.3,3,12,3z M12,11.4
		c-1.6,0-2.9-1.3-2.9-2.9V7.1c0-1.6,1.3-2.9,2.9-2.9s2.9,1.3,2.9,2.9v1.4C14.9,10.1,13.6,11.4,12,11.4z M12,4.4
		c-1.5,0-2.7,1.2-2.7,2.7v1.4c0,1.5,1.2,2.7,2.7,2.7s2.7-1.2,2.7-2.7V7.1C14.7,5.6,13.5,4.4,12,4.4z"/>
</g>
</svg>
