<?xml version="1.0" encoding="utf-8"?>
<!-- Generator: Adobe Illustrator 24.0.0, SVG Export Plug-In . SVG Version: 6.00 Build 0)  -->
<svg version="1.1" id="Layer_1" xmlns="http://www.w3.org/2000/svg" xmlns:xlink="http://www.w3.org/1999/xlink" x="0px" y="0px"
	 viewBox="0 0 24 24" style="enable-background:new 0 0 24 24;" xml:space="preserve">
<style type="text/css">
	.st0{fill:#999999;}
</style>
<g>
	<path class="st0" d="M7.9,18.3c-1.5,0-2.8,1.3-2.8,2.8c0,1.5,1.3,2.8,2.8,2.8s2.8-1.3,2.8-2.8C10.7,19.5,9.5,18.3,7.9,18.3z
		 M7.9,22.8c-1,0-1.8-0.8-1.8-1.8c0-1,0.8-1.8,1.8-1.8c1,0,1.8,0.8,1.8,1.8C9.7,22,8.9,22.8,7.9,22.8z"/>
	<path class="st0" d="M7.9,24.1c-1.7,0-3-1.4-3-3s1.4-3,3-3s3,1.4,3,3S9.6,24.1,7.9,24.1z M7.9,18.5c-1.4,0-2.6,1.2-2.6,2.6
		s1.2,2.6,2.6,2.6c1.4,0,2.6-1.2,2.6-2.6S9.3,18.5,7.9,18.5z M7.9,23.1c-1.1,0-2-0.9-2-2s0.9-2,2-2c1.1,0,2,0.9,2,2S9,23.1,7.9,23.1
		z M7.9,19.5c-0.8,0-1.5,0.7-1.5,1.5s0.7,1.5,1.5,1.5c0.8,0,1.5-0.7,1.5-1.5S8.8,19.5,7.9,19.5z"/>
</g>
<g>
	<path class="st0" d="M23.2,6.5H5L4.6,4.4C4.4,3.1,3.4,2.1,2.1,1.9L0.8,1.7C0.5,1.6,0.2,1.8,0.2,2.1s0.1,0.5,0.4,0.6l1.4,0.2
		c0.9,0.1,1.5,0.8,1.7,1.7l1.8,10.3C5.6,16.1,6.7,17,8,17h10.8c1.1,0,2.1-0.7,2.5-1.8l2.4-8c0-0.2,0-0.3-0.1-0.5
		C23.5,6.6,23.3,6.5,23.2,6.5z M20.3,14.9c-0.2,0.7-0.8,1.1-1.5,1.1H8c-0.7,0-1.4-0.5-1.5-1.3L5.2,7.5h17.3L20.3,14.9z"/>
	<path class="st0" d="M18.8,17.2C18.8,17.2,18.8,17.2,18.8,17.2H8c0,0,0,0,0,0c-1.4,0-2.5-1-2.8-2.3L3.4,4.6
		C3.2,3.9,2.6,3.3,1.9,3.2L0.5,2.9c-0.2,0-0.4-0.1-0.5-0.3c-0.1-0.2-0.2-0.4-0.1-0.6C0,1.6,0.4,1.4,0.8,1.4l1.3,0.2
		C3.5,1.9,4.6,3,4.8,4.4l0.3,1.9l18,0c0.2,0,0.5,0.1,0.6,0.3C23.9,6.8,24,7,23.9,7.2l-2.4,8C21.1,16.4,20,17.2,18.8,17.2z
		 M18.8,16.8C18.8,16.8,18.8,16.8,18.8,16.8c1,0,2-0.7,2.2-1.7l2.4-8c0-0.1,0-0.2,0-0.3c0-0.1-0.1-0.1-0.2-0.1H4.8L4.4,4.5
		C4.2,3.3,3.2,2.4,2.1,2.1L0.7,1.9C0.6,1.9,0.4,2,0.4,2.1c0,0.1,0,0.1,0,0.2c0,0.1,0.1,0.1,0.2,0.1L2,2.7c0.9,0.2,1.7,0.9,1.9,1.9
		l1.8,10.3c0.2,1.1,1.2,1.9,2.3,1.9c0,0,0,0,0,0H18.8z M18.8,16.2H8c-0.9,0-1.6-0.6-1.8-1.5L4.9,7.3h17.9L20.5,15
		C20.3,15.7,19.6,16.2,18.8,16.2z M5.5,7.8l1.2,6.9c0.1,0.6,0.7,1.1,1.3,1.1h10.8c0.6,0,1.1-0.4,1.3-0.9l0,0l2.1-7.1H5.5z"/>
</g>
<g>
	<path class="st0" d="M18.7,18.3c-1.5,0-2.8,1.3-2.8,2.8c0,1.5,1.3,2.8,2.8,2.8c1.5,0,2.8-1.3,2.8-2.8
		C21.5,19.5,20.3,18.3,18.7,18.3z M18.7,22.8c-1,0-1.8-0.8-1.8-1.8c0-1,0.8-1.8,1.8-1.8c1,0,1.8,0.8,1.8,1.8
		C20.5,22,19.7,22.8,18.7,22.8z"/>
	<path class="st0" d="M18.7,24.1c-1.7,0-3-1.4-3-3s1.4-3,3-3c1.7,0,3,1.4,3,3C21.8,22.7,20.4,24.1,18.7,24.1z M18.7,18.5
		c-1.4,0-2.6,1.2-2.6,2.6s1.2,2.6,2.6,2.6s2.6-1.2,2.6-2.6C21.3,19.6,20.1,18.5,18.7,18.5z M18.7,23.1c-1.1,0-2-0.9-2-2s0.9-2,2-2
		c1.1,0,2,0.9,2,2S19.8,23.1,18.7,23.1z M18.7,19.5c-0.8,0-1.5,0.7-1.5,1.5s0.7,1.5,1.5,1.5c0.8,0,1.5-0.7,1.5-1.5
		S19.6,19.5,18.7,19.5z"/>
</g>
</svg>
