<?xml version="1.0" encoding="utf-8"?>
<!-- Generator: Adobe Illustrator 24.0.0, SVG Export Plug-In . SVG Version: 6.00 Build 0)  -->
<svg version="1.1" id="Capa_1" xmlns="http://www.w3.org/2000/svg" xmlns:xlink="http://www.w3.org/1999/xlink" x="0px" y="0px"
	 viewBox="0 0 24 24" style="enable-background:new 0 0 24 24;" xml:space="preserve">
<style type="text/css">
	.st0{fill:#999999;}
</style>
<path class="st0" d="M9.4,0H0.9C0.4,0,0,0.4,0,0.9v8.6c0,0.5,0.4,0.9,0.9,0.9h8.6c0.5,0,0.9-0.4,0.9-0.9V6.9v-6
	C10.3,0.4,9.9,0,9.4,0z M8.6,8.6H1.7V1.7h6.9V8.6z"/>
<path class="st0" d="M9.4,13.7H0.9c-0.5,0-0.9,0.4-0.9,0.9v8.6C0,23.6,0.4,24,0.9,24h8.6c0.5,0,0.9-0.4,0.9-0.9v-8.6
	C10.3,14.1,9.9,13.7,9.4,13.7z M8.6,22.3H1.7v-6.9h6.9V22.3z"/>
<path class="st0" d="M23.1,13.7h-6h-2.6c-0.5,0-0.9,0.4-0.9,0.9v8.6c0,0.5,0.4,0.9,0.9,0.9h8.6c0.5,0,0.9-0.4,0.9-0.9v-8.6
	C24,14.1,23.6,13.7,23.1,13.7z M22.3,22.3h-6.9v-6.9h6.9V22.3z"/>
<path class="st0" d="M23.7,7.5c0.3-0.3,0.3-0.9,0-1.2l-6-6c-0.3-0.3-0.9-0.3-1.2,0l-6,6c-0.2,0.2-0.3,0.4-0.3,0.6
	c0,0.2,0.1,0.4,0.3,0.6l6,6c0.2,0.2,0.4,0.3,0.6,0.3s0.4-0.1,0.6-0.3L23.7,7.5L23.7,7.5z M12.4,6.9l4.8-4.8l4.8,4.8l-4.8,4.8
	L12.4,6.9L12.4,6.9z"/>
</svg>
