<?xml version="1.0" encoding="utf-8"?>
<!-- Generator: Adobe Illustrator 24.0.0, SVG Export Plug-In . SVG Version: 6.00 Build 0)  -->
<svg version="1.1" id="Layer_1" xmlns="http://www.w3.org/2000/svg" xmlns:xlink="http://www.w3.org/1999/xlink" x="0px" y="0px"
	 viewBox="0 0 24 24" style="enable-background:new 0 0 24 24;" xml:space="preserve">
<g>
	<g>
		<g>
			<g>
				<path d="M8.2,13.1c-0.2,0.2-0.2,0.5,0,0.7C8.3,13.9,8.4,14,8.5,14s0.3,0,0.3-0.1l3-3c0,0,0.1-0.1,0.1-0.2c0,0,0-0.1,0-0.1
					c0,0,0-0.1,0-0.1c0,0,0-0.1,0-0.1c0,0,0-0.1,0-0.1c0-0.1-0.1-0.1-0.1-0.2l-3-3C8.7,7,8.4,7,8.2,7.2C8,7.4,8,7.7,8.2,7.9l2.1,2.1
					H1.6c-0.3,0-0.5,0.2-0.5,0.5S1.3,11,1.6,11h8.7L8.2,13.1z"/>
				<path d="M8.5,14.1c-0.2,0-0.3-0.1-0.4-0.2C8,13.8,8,13.6,8,13.5c0-0.2,0.1-0.3,0.2-0.4l0,0l2-2H1.6c-0.3,0-0.6-0.3-0.6-0.6
					s0.3-0.6,0.6-0.6h8.6l-2-2c-0.2-0.2-0.2-0.6,0-0.8C8.2,7,8.4,7,8.5,7S8.8,7,8.9,7.1l3,3c0.1,0.1,0.1,0.1,0.1,0.2
					c0,0,0,0.1,0,0.1c0,0,0,0,0,0c0,0,0,0,0,0c0,0,0,0.1,0,0.1c0,0,0,0.1,0,0.1c0,0,0,0,0,0l0,0c0,0,0,0,0,0c0,0,0,0.1,0,0.1
					c0,0.1-0.1,0.1-0.1,0.2l-3,3C8.8,14,8.7,14.1,8.5,14.1z M8.2,13.2c-0.1,0.1-0.1,0.2-0.1,0.3c0,0.1,0,0.2,0.1,0.3
					c0.1,0.1,0.2,0.1,0.3,0.1c0.1,0,0.2,0,0.3-0.1l3-3c0,0,0.1-0.1,0.1-0.1c0,0,0,0,0,0c0,0,0,0,0,0c0,0,0,0,0,0c0,0,0,0,0,0
					c0,0,0,0,0-0.1c0,0,0,0,0,0l0,0c0,0,0,0,0,0c0,0,0,0,0,0l0,0c0-0.1-0.1-0.1-0.1-0.2l-3-3C8.7,7.1,8.6,7.1,8.5,7.1
					c-0.1,0-0.2,0-0.3,0.1C8,7.4,8,7.7,8.2,7.8l2.3,2.3H1.6c-0.2,0-0.4,0.2-0.4,0.4c0,0.2,0.2,0.4,0.4,0.4h8.9L8.2,13.2L8.2,13.2z"
					/>
			</g>
			<g>
				<path d="M20.8,0.1c-0.1,0-0.1,0-0.2,0c0,0-0.1,0-0.1,0H8.5C7.1,0.1,6,1.2,6,2.6v5C6,7.8,6.3,8,6.5,8C6.8,8,7,7.8,7,7.5v-5
					c0-0.8,0.7-1.5,1.5-1.5H18l-3.7,1.6C13.5,3,13,3.8,13,4.6V20H8.5c-0.7,0-1.3-0.5-1.5-0.7l0-5.8C7,13.2,6.8,13,6.5,13l0,0
					C6.3,13,6,13.2,6,13.5l0,5.8c0,0.2,0.1,0.4,0.3,0.7c0.4,0.4,1.2,1,2.2,1H13v0.8c0,1.2,1,2.1,2.1,2.1c0.3,0,0.6-0.1,0.8-0.2
					l5.6-2.4c0.8-0.3,1.3-1.1,1.3-2V2.2C22.9,1,22,0.1,20.8,0.1z M21.9,19.4c0,0.5-0.3,0.9-0.7,1.1l-5.6,2.4
					c-0.1,0.1-0.3,0.1-0.5,0.1c-0.6,0-1.2-0.5-1.2-1.2V4.6c0-0.5,0.3-0.9,0.7-1.1l5.6-2.4c0.1-0.1,0.3-0.1,0.5-0.1
					c0.6,0,1.2,0.5,1.2,1.2V19.4z"/>
				<path d="M15.1,24c-1.2,0-2.2-1-2.2-2.2V21H8.5c-1,0-1.8-0.5-2.2-1C6.1,19.8,6,19.5,6,19.3l0-5.8c0-0.3,0.3-0.6,0.6-0.6
					c0.3,0,0.6,0.3,0.6,0.6l0,5.7c0.1,0.2,0.7,0.7,1.4,0.7h4.4V4.6c0-0.9,0.5-1.7,1.3-2l3.4-1.5H8.5c-0.8,0-1.4,0.6-1.4,1.4v5
					c0,0.3-0.3,0.6-0.6,0.6S6,7.8,6,7.5v-5C6,1.1,7.1,0,8.5,0h11.9c0,0,0.1,0,0.1,0c0,0,0,0,0,0c0,0,0,0,0,0c0.1,0,0.1,0,0.2,0
					C22,0,23,1,23,2.2v17.1c0,0.9-0.5,1.7-1.3,2L16,23.8C15.7,23.9,15.4,24,15.1,24z M6.5,13.1c-0.2,0-0.4,0.2-0.4,0.4l0,5.8l0,0
					c0,0.2,0.1,0.4,0.3,0.6c0.4,0.4,1.2,0.9,2.1,0.9h4.5v0.9c0,1.1,0.9,2.1,2.1,2.1c0.3,0,0.6-0.1,0.8-0.2l5.6-2.4
					c0.8-0.3,1.3-1.1,1.3-1.9V2.2c0-1.1-0.9-2.1-2.1-2.1c-0.1,0-0.1,0-0.2,0c0,0,0,0-0.1,0l0,0l0,0c0,0,0,0,0,0c0,0,0,0-0.1,0H8.5
					c-1.3,0-2.4,1.1-2.4,2.4v5C6.1,7.8,6.3,8,6.5,8S7,7.8,7,7.5v-5C7,1.7,7.7,1,8.5,1h9.8l-4,1.7c-0.8,0.3-1.3,1.1-1.3,1.9V20H8.5
					c-0.8,0-1.4-0.5-1.5-0.7l0,0l0-5.8C7,13.3,6.8,13.1,6.5,13.1z M15.1,23c-0.7,0-1.2-0.5-1.2-1.2V4.6c0-0.5,0.3-0.9,0.7-1.1
					l5.6-2.4C20.5,1,20.6,1,20.8,1C21.5,1,22,1.5,22,2.2v17.1c0,0.5-0.3,0.9-0.7,1.1l-5.6,2.4C15.5,23,15.3,23,15.1,23z M20.8,1.1
					c-0.1,0-0.3,0-0.4,0.1l-5.6,2.4c-0.4,0.2-0.7,0.6-0.7,1v17.1c0,0.6,0.5,1.1,1.1,1.1c0.1,0,0.3,0,0.4-0.1l5.6-2.4
					c0.4-0.2,0.7-0.6,0.7-1V2.2C21.9,1.6,21.4,1.1,20.8,1.1z"/>
			</g>
			<g>
				<path d="M15.5,11c-0.3,0-0.5,0.2-0.5,0.5v2c0,0.3,0.2,0.5,0.5,0.5c0.3,0,0.5-0.2,0.5-0.5v-2C16,11.2,15.8,11,15.5,11z"/>
				<path d="M15.5,14.1c-0.3,0-0.6-0.3-0.6-0.6v-2c0-0.3,0.3-0.6,0.6-0.6c0.3,0,0.6,0.2,0.6,0.6v2C16,13.8,15.8,14.1,15.5,14.1z
					 M15.5,11.1c-0.2,0-0.4,0.2-0.4,0.4v2c0,0.2,0.2,0.4,0.4,0.4c0.2,0,0.4-0.2,0.4-0.4v-2C15.9,11.3,15.7,11.1,15.5,11.1z"/>
			</g>
		</g>
	</g>
</g>
</svg>
