<?xml version="1.0" encoding="utf-8"?>
<!-- Generator: Adobe Illustrator 24.0.0, SVG Export Plug-In . SVG Version: 6.00 Build 0)  -->
<svg version="1.1" id="Capa_1" xmlns="http://www.w3.org/2000/svg" xmlns:xlink="http://www.w3.org/1999/xlink" x="0px" y="0px"
	 viewBox="0 0 24 24" style="enable-background:new 0 0 24 24;" xml:space="preserve">
<g>
	<g>
		<path d="M12,5.7c-3.5,0-6.3,2.8-6.3,6.3c0,3.5,2.8,6.3,6.3,6.3c3.5,0,6.3-2.8,6.3-6.3C18.3,8.5,15.5,5.7,12,5.7z M12,16.9
			c-1.1,0-2.2-0.4-3-1.1c0.6-1.1,1.8-1.8,3-1.8c1.3,0,2.4,0.7,3,1.8C14.2,16.5,13.1,16.9,12,16.9z M10.6,11.3c0-0.8,0.6-1.4,1.4-1.4
			s1.4,0.6,1.4,1.4s-0.6,1.4-1.4,1.4S10.6,12.1,10.6,11.3z M16,14.8c-0.5-0.7-1.2-1.3-1.9-1.6c0.4-0.5,0.7-1.2,0.7-1.9
			c0-1.6-1.3-2.8-2.8-2.8s-2.8,1.3-2.8,2.8c0,0.7,0.3,1.4,0.7,1.9c-0.8,0.4-1.4,0.9-1.9,1.6C7.4,14,7.1,13,7.1,12
			c0-2.7,2.2-4.9,4.9-4.9s4.9,2.2,4.9,4.9C16.9,13,16.6,14,16,14.8z"/>
	</g>
</g>
<g>
	<g>
		<path d="M23.4,9.9l-1.9-0.3c-0.2-0.9-0.6-1.8-1.1-2.6l1.1-1.5c0.2-0.3,0.2-0.7-0.1-0.9l-2-2c-0.2-0.2-0.6-0.3-0.9-0.1L17,3.6
			c-0.8-0.5-1.7-0.9-2.6-1.1l-0.3-1.9C14,0.2,13.8,0,13.4,0h-2.8C10.2,0,10,0.2,9.9,0.6L9.6,2.5C8.7,2.7,7.8,3.1,7,3.6L5.4,2.5
			C5.2,2.3,4.8,2.3,4.5,2.6l-2,2C2.3,4.8,2.3,5.2,2.5,5.4L3.6,7C3.1,7.8,2.7,8.7,2.5,9.6L0.6,9.9C0.2,10,0,10.2,0,10.6v2.8
			c0,0.3,0.2,0.6,0.6,0.7l1.9,0.3c0.2,0.9,0.6,1.8,1.1,2.6l-1.1,1.5c-0.2,0.3-0.2,0.7,0.1,0.9l2,2c0.2,0.2,0.6,0.3,0.9,0.1L7,20.4
			c0.8,0.5,1.7,0.9,2.6,1.1l0.3,1.9c0.1,0.3,0.3,0.6,0.7,0.6h2.8c0.3,0,0.6-0.2,0.7-0.6l0.3-1.9c0.9-0.2,1.8-0.6,2.6-1.1l1.5,1.1
			c0.3,0.2,0.7,0.2,0.9-0.1l2-2c0.2-0.2,0.3-0.6,0.1-0.9L20.4,17c0.5-0.8,0.9-1.7,1.1-2.6l1.9-0.3c0.3-0.1,0.6-0.3,0.6-0.7v-2.8
			C24,10.2,23.8,10,23.4,9.9z M22.6,12.8l-1.7,0.3c-0.3,0-0.5,0.3-0.6,0.6c-0.2,1.1-0.6,2.1-1.3,3c-0.2,0.2-0.2,0.6,0,0.8l1,1.4
			L18.9,20l-1.4-1c-0.2-0.2-0.6-0.2-0.8,0c-0.9,0.6-1.9,1-3,1.3c-0.3,0.1-0.5,0.3-0.6,0.6l-0.3,1.7h-1.6l-0.3-1.7
			c0-0.3-0.3-0.5-0.6-0.6c-1.1-0.2-2.1-0.6-3-1.3c-0.2-0.2-0.6-0.2-0.8,0l-1.4,1L4,18.9l1-1.4c0.2-0.2,0.2-0.6,0-0.8
			c-0.6-0.9-1-1.9-1.3-3c-0.1-0.3-0.3-0.5-0.6-0.6l-1.7-0.3v-1.6l1.7-0.3c0.3,0,0.5-0.3,0.6-0.6c0.2-1.1,0.6-2.1,1.3-3
			c0.2-0.2,0.2-0.6,0-0.8L4,5.1L5.1,4l1.4,1c0.2,0.2,0.6,0.2,0.8,0c0.9-0.6,1.9-1,3-1.3c0.3-0.1,0.5-0.3,0.6-0.6l0.3-1.7h1.6
			l0.3,1.7c0,0.3,0.3,0.5,0.6,0.6c1.1,0.2,2.1,0.6,3,1.3c0.2,0.2,0.6,0.2,0.8,0l1.4-1L20,5.1l-1,1.4c-0.2,0.2-0.2,0.6,0,0.8
			c0.6,0.9,1,1.9,1.3,3c0.1,0.3,0.3,0.5,0.6,0.6l1.7,0.3V12.8z"/>
	</g>
</g>
</svg>
