<?xml version="1.0" encoding="utf-8"?>
<!-- Generator: Adobe Illustrator 24.0.0, SVG Export Plug-In . SVG Version: 6.00 Build 0)  -->
<svg version="1.1" id="Layer_1" xmlns="http://www.w3.org/2000/svg" xmlns:xlink="http://www.w3.org/1999/xlink" x="0px" y="0px"
	 viewBox="0 0 24 24" style="enable-background:new 0 0 24 24;" xml:space="preserve">
<g>
	<path d="M4.8,0.1C5.3,0.2,5.7,0.5,6,0.8c0.7,0.7,1.3,1.4,1.8,2.2C8.5,3.9,9,4.8,9.5,5.8c0.1,0.3,0.3,0.6,0.3,1
		c0.1,0.4-0.1,0.8-0.3,1.1c-0.3,0.3-0.6,0.6-1,0.7C8,8.8,7.6,9,7.2,9.2C7,9.3,7,9.2,7.1,9.5c0.2,0.6,0.6,1.1,0.9,1.6
		c0.6,0.9,1.3,1.8,2.1,2.6c0.7,0.7,1.5,1.3,2.3,1.9c0.6,0.4,1.2,0.9,1.9,1.2c0.1,0,0.2,0.1,0.3,0.1c0.1-0.2,0.2-0.3,0.2-0.4
		c0.2-0.4,0.3-0.8,0.5-1.1c0.1-0.3,0.3-0.6,0.5-0.8c0.4-0.4,0.9-0.5,1.5-0.4c0.5,0.1,1,0.4,1.5,0.7c1.3,0.7,2.5,1.5,3.6,2.5
		c0.4,0.3,0.7,0.7,1,1.1c0.2,0.3,0.4,0.7,0.3,1c0,0.3-0.1,0.5-0.3,0.8c-0.3,0.5-0.7,1-1.2,1.4c-1,0.9-2,1.6-3.2,2
		c-0.4,0.1-0.8,0.3-1.2,0.3c0,0-0.1,0-0.1,0c-0.2,0-0.4,0-0.6,0c-0.1,0-0.1,0-0.2,0c-0.7-0.1-1.4-0.3-2.1-0.6
		c-1.1-0.5-2.2-1.1-3.2-1.8c-2.7-1.9-5.2-4.1-7.3-6.7c-1.2-1.4-2.2-2.9-3.1-4.5C0.8,9.3,0.4,8.4,0.1,7.5C0.1,7.2,0,6.9,0,6.7
		c0-0.2,0-0.4,0-0.6C0,6.1,0,6,0,6c0.1-0.5,0.2-1,0.4-1.5c0.5-1.1,1.1-2.1,1.9-2.9c0.6-0.7,1.2-1.3,2.2-1.5C4.6,0.1,4.7,0.1,4.8,0.1
		z M17.4,22.5c0.5,0,0.8-0.1,1.2-0.2c1.3-0.5,2.4-1.3,3.3-2.3c0.2-0.2,0.3-0.4,0.4-0.6c0.1-0.1,0.1-0.2,0-0.3
		c-0.2-0.2-0.3-0.4-0.5-0.6c-0.7-0.7-1.5-1.3-2.4-1.9c-0.7-0.4-1.3-0.9-2.1-1.2c-0.4-0.2-0.4-0.2-0.6,0.2c-0.2,0.3-0.3,0.7-0.5,1
		c-0.2,0.3-0.3,0.7-0.6,1c-0.4,0.4-0.8,0.6-1.3,0.5c-0.4-0.1-0.8-0.3-1.2-0.5c-1.2-0.7-2.3-1.5-3.3-2.4c-1.3-1.2-2.4-2.6-3.4-4.2
		c-0.3-0.5-0.5-0.9-0.7-1.5c-0.1-0.3-0.1-0.5,0-0.8C5.7,8.5,6,8.2,6.3,8c0.4-0.2,0.9-0.4,1.3-0.6C7.9,7.3,8.1,7.2,8.3,7
		C8.4,7,8.4,6.9,8.4,6.8C8.3,6.7,8.3,6.6,8.2,6.5C7.5,4.9,6.5,3.5,5.4,2.2C5.2,2,5,1.8,4.7,1.6c-0.1-0.1-0.2-0.1-0.3,0
		C4.3,1.6,4.2,1.7,4.1,1.8C3,2.7,2.2,3.8,1.7,5.2c-0.2,0.5-0.3,1-0.2,1.5C1.5,7.1,1.6,7.5,1.8,8c0.4,1.2,1.1,2.3,1.8,3.3
		c2.4,3.6,5.4,6.6,8.9,9c1.1,0.7,2.2,1.4,3.4,1.9C16.4,22.3,16.9,22.5,17.4,22.5z"/>
	<path d="M24,9.4C24,9.4,24,9.4,24,9.4c-0.1,0.3-0.3,0.4-0.6,0.4c-0.2,0-0.4-0.2-0.5-0.5c-0.1-0.4-0.2-0.9-0.3-1.3
		c-0.8-2.4-2.5-4.1-4.8-5.2c-1.6-0.7-3.2-1-4.9-0.8c-0.3,0-0.6,0.1-0.9,0.1c-0.3,0-0.6-0.1-0.6-0.4c-0.1-0.3,0.1-0.6,0.4-0.6
		c3-0.5,5.8,0.1,8.3,1.9c2,1.5,3.3,3.5,3.8,5.9C24,9,24,9.1,24,9.1C24,9.2,24,9.3,24,9.4z"/>
	<path d="M13.4,4.4c2.4,0.1,4.3,1,5.6,3c0.4,0.7,0.7,1.4,0.9,2.2c0.1,0.3-0.1,0.6-0.4,0.7c-0.3,0.1-0.6-0.1-0.6-0.5
		c-0.1-0.6-0.3-1.2-0.7-1.8c-0.8-1.3-2-2-3.5-2.4c-0.8-0.2-1.5-0.2-2.3,0c-0.3,0-0.6-0.1-0.6-0.4c0-0.3,0.1-0.6,0.4-0.6
		C12.6,4.4,13,4.4,13.4,4.4z"/>
	<path d="M12.9,7.8c1.6,0,3,0.9,3.6,2.3c0.1,0.2,0.2,0.5,0.2,0.7c0.1,0.3-0.1,0.6-0.4,0.6c-0.3,0.1-0.6-0.1-0.6-0.4
		c-0.1-0.5-0.3-0.9-0.6-1.2c-0.6-0.7-1.4-1-2.3-1c-0.2,0-0.3,0-0.5,0c-0.3,0-0.6-0.1-0.6-0.4c0-0.3,0.1-0.5,0.4-0.6
		C12.5,7.8,12.7,7.8,12.9,7.8z"/>
</g>
</svg>
