<?xml version="1.0" encoding="utf-8"?>
<!-- Generator: Adobe Illustrator 24.0.0, SVG Export Plug-In . SVG Version: 6.00 Build 0)  -->
<svg version="1.1" id="Capa_1" xmlns="http://www.w3.org/2000/svg" xmlns:xlink="http://www.w3.org/1999/xlink" x="0px" y="0px"
	 viewBox="0 0 24 24" style="enable-background:new 0 0 24 24;" xml:space="preserve">
<g>
	<g>
		<g>
			<path d="M10.6,16.5H0.9c-0.5,0-0.9,0.4-0.9,0.9v5.6C0,23.6,0.4,24,0.9,24h9.7c0.5,0,0.9-0.4,0.9-0.9v-5.6
				C11.5,16.9,11.1,16.5,10.6,16.5z M9.7,22.1H1.9v-3.8h7.8V22.1z"/>
			<path d="M10.6,0H0.9C0.4,0,0,0.4,0,0.9v13.7c0,0.5,0.4,0.9,0.9,0.9h9.7c0.5,0,0.9-0.4,0.9-0.9V0.9C11.5,0.4,11.1,0,10.6,0z
				 M9.7,13.7H1.9V1.9h7.8V13.7z"/>
			<path d="M23.1,0h-9.7c-0.5,0-0.9,0.4-0.9,0.9v5.6c0,0.5,0.4,0.9,0.9,0.9h9.7c0.5,0,0.9-0.4,0.9-0.9V0.9C24,0.4,23.6,0,23.1,0z
				 M22.1,5.6h-7.8V1.9h7.8V5.6z"/>
			<path d="M23.1,8.4h-9.7c-0.5,0-0.9,0.4-0.9,0.9v13.7c0,0.5,0.4,0.9,0.9,0.9h9.7c0.5,0,0.9-0.4,0.9-0.9V9.4
				C24,8.9,23.6,8.4,23.1,8.4z M22.1,22.1h-7.8V10.3h7.8V22.1z"/>
		</g>
	</g>
</g>
</svg>
