<?xml version="1.0" encoding="utf-8"?>
<!-- Generator: Adobe Illustrator 24.0.0, SVG Export Plug-In . SVG Version: 6.00 Build 0)  -->
<svg version="1.1" id="Layer_1" xmlns="http://www.w3.org/2000/svg" xmlns:xlink="http://www.w3.org/1999/xlink" x="0px" y="0px"
	 viewBox="0 0 24 24" style="enable-background:new 0 0 24 24;" xml:space="preserve">
<g>
	<path d="M3.4,18.3c0-0.1-0.2-0.2-0.2-0.3c0.2-1.2,0.4-2.5,0.7-3.7c0-0.2,0.2-0.4,0.3-0.5c3.2-3.4,6.4-6.8,9.6-10.2
		c0.3-0.3,0.4-0.3,0.7,0c0.9,0.9,1.9,1.8,2.8,2.7c0.3,0.3,0.3,0.4,0,0.7C14.3,10.2,11,13.6,7.8,17c-0.1,0.2-0.4,0.3-0.6,0.3
		c-1.2,0.3-2.4,0.6-3.6,0.8C3.6,18.2,3.6,18.2,3.4,18.3z"/>
	<path d="M1.7,24c0-1.1,0-2.1,0-3.2c6.8,0,13.7,0,20.5,0c0,1.1,0,2.1,0,3.2C15.4,24,8.6,24,1.7,24z"/>
	<path d="M20.8,3.3c-0.1,0.1-0.1,0.2-0.2,0.3c-0.6,0.6-1.2,1.3-1.8,1.9c-0.2,0.3-0.5,0.3-0.7,0c-1-0.9-1.9-1.8-2.9-2.7
		c-0.2-0.2-0.3-0.4,0-0.7c0.6-0.6,1.2-1.3,1.8-1.9c0.2-0.2,0.4-0.2,0.6,0c1,0.9,1.9,1.8,2.9,2.8C20.7,3,20.7,3.1,20.8,3.3z"/>
</g>
</svg>
