<?xml version="1.0" encoding="utf-8"?>
<!-- Generator: Adobe Illustrator 24.0.0, SVG Export Plug-In . SVG Version: 6.00 Build 0)  -->
<svg version="1.1" id="Layer_1" xmlns="http://www.w3.org/2000/svg" xmlns:xlink="http://www.w3.org/1999/xlink" x="0px" y="0px"
	 viewBox="0 0 24 24" style="enable-background:new 0 0 24 24;" xml:space="preserve">
<g>
	<path d="M7,13.1c-1.9,0-3.8,0-5.7,0c-0.2,0-0.4,0-0.6-0.1C0.3,12.9,0,12.5,0,12c0-0.5,0.3-0.9,0.8-1c0.2-0.1,0.4-0.1,0.7-0.1
		c3.8,0,7.6,0,11.3,0c0.4,0,0.6-0.1,0.7-0.4c0.6-1.1,1.6-1.8,2.9-1.7c1.3,0,2.3,0.7,2.9,1.8c0.1,0.3,0.3,0.4,0.6,0.4
		c1,0,1.9,0,2.9,0c0.8,0,1.3,0.4,1.3,1.1c0,0.7-0.5,1.1-1.3,1.1c-1,0-1.9,0-2.9,0c-0.3,0-0.4,0.1-0.6,0.3c-0.6,1.2-1.6,1.8-2.9,1.8
		c-1.3,0-2.3-0.7-2.9-1.8c-0.1-0.3-0.3-0.3-0.6-0.3C10.9,13.1,9,13.1,7,13.1z M17.4,12c0-0.6-0.5-1.1-1.1-1.1
		c-0.6,0-1.1,0.5-1.1,1.1c0,0.6,0.5,1.1,1.1,1.1C17,13.1,17.4,12.6,17.4,12z"/>
	<path d="M18,6.6c-1.6,0-3.1,0-4.7,0c-0.3,0-0.5,0.1-0.6,0.4c-0.6,1.2-1.6,1.8-2.9,1.8c-1.3,0-2.3-0.7-2.9-1.8
		C6.8,6.6,6.6,6.5,6.3,6.5c-1.7,0-3.4,0-5.1,0C0.6,6.6,0.1,6.2,0,5.7c-0.2-0.7,0.4-1.3,1.2-1.3c1.7,0,3.3,0,5,0
		c0.4,0,0.6-0.1,0.8-0.4c0.6-1.1,1.6-1.7,2.9-1.7c1.3,0,2.2,0.6,2.8,1.8c0.2,0.3,0.4,0.4,0.7,0.4c3,0,6.1,0,9.1,0c0.2,0,0.4,0,0.6,0
		C23.7,4.5,24,5,24,5.5c0,0.5-0.4,0.9-0.9,1c-0.2,0-0.3,0-0.5,0C21.1,6.6,19.6,6.6,18,6.6z M10.9,5.5c0-0.6-0.5-1.1-1-1.1
		c-0.6,0-1.1,0.5-1.1,1.1c0,0.6,0.5,1.1,1.1,1.1C10.4,6.5,10.9,6.1,10.9,5.5z"/>
	<path d="M16.9,19.6c-1.9,0-3.8,0-5.8,0c-0.3,0-0.5,0.1-0.6,0.4c-0.6,1.1-1.6,1.8-2.9,1.8c-1.3,0-2.3-0.6-2.9-1.8
		c-0.1-0.3-0.3-0.4-0.6-0.4c-1,0-1.9,0-2.9,0c-0.8,0-1.3-0.4-1.3-1.1c0-0.7,0.5-1.1,1.3-1.1c1,0,1.9,0,2.9,0c0.3,0,0.4-0.1,0.6-0.3
		c0.6-1.2,1.6-1.8,2.9-1.8c1.3,0,2.3,0.7,2.9,1.8c0.2,0.3,0.4,0.3,0.6,0.3c3.8,0,7.6,0,11.3,0c0.2,0,0.4,0,0.6,0
		c0.5,0.1,0.9,0.5,0.9,1.1c0,0.5-0.3,0.9-0.9,1.1c-0.2,0-0.3,0-0.5,0C20.7,19.6,18.8,19.6,16.9,19.6z M6.6,18.5
		c0,0.6,0.5,1.1,1.1,1.1c0.6,0,1.1-0.5,1.1-1.1c0-0.6-0.5-1.1-1.1-1.1C7,17.4,6.6,17.9,6.6,18.5z"/>
</g>
</svg>
