<?xml version="1.0" encoding="utf-8"?>
<!-- Generator: Adobe Illustrator 24.0.0, SVG Export Plug-In . SVG Version: 6.00 Build 0)  -->
<svg version="1.1" id="Layer_1" xmlns="http://www.w3.org/2000/svg" xmlns:xlink="http://www.w3.org/1999/xlink" x="0px" y="0px"
	 viewBox="0 0 24 24" style="enable-background:new 0 0 24 24;" xml:space="preserve">
<path d="M15.9,12.8H0.8C0.4,12.8,0,12.4,0,12c0-0.4,0.4-0.8,0.8-0.8h15.1c0.4,0,0.8,0.4,0.8,0.8C16.7,12.4,16.3,12.8,15.9,12.8z"/>
<path d="M11.7,17c-0.2,0-0.4-0.1-0.6-0.2c-0.3-0.3-0.3-0.8,0-1.1l3.6-3.6l-3.6-3.6c-0.3-0.3-0.3-0.8,0-1.1C11.5,7,12,7,12.3,7.3
	l4.2,4.2c0.3,0.3,0.3,0.8,0,1.1l-4.2,4.2C12.1,16.9,11.9,17,11.7,17z"/>
<path d="M12.5,23.5c-4.7,0-8.9-2.9-10.7-7.3c-0.2-0.4,0-0.9,0.4-1c0.4-0.2,0.9,0,1,0.4c1.5,3.8,5.1,6.3,9.2,6.3
	c5.5,0,9.9-4.4,9.9-9.9S18,2.1,12.5,2.1c-4.1,0-7.7,2.5-9.2,6.3C3.1,8.8,2.7,9,2.3,8.8c-0.4-0.2-0.6-0.6-0.4-1
	c1.7-4.4,5.9-7.3,10.7-7.3C18.9,0.5,24,5.7,24,12S18.9,23.5,12.5,23.5z"/>
</svg>
