<?xml version="1.0" encoding="utf-8"?>
<!-- Generator: Adobe Illustrator 24.0.0, SVG Export Plug-In . SVG Version: 6.00 Build 0)  -->
<svg version="1.1" id="Layer_1" xmlns="http://www.w3.org/2000/svg" xmlns:xlink="http://www.w3.org/1999/xlink" x="0px" y="0px"
	 viewBox="0 0 24 24" style="enable-background:new 0 0 24 24;" xml:space="preserve">
<g>
	<g>
		<path d="M12,23.7C5.5,23.7,0.3,18.5,0.3,12C0.3,5.5,5.6,0.3,12,0.3c6.5,0,11.7,5.3,11.7,11.8C23.7,18.5,18.4,23.7,12,23.7z
			 M10,13.4c-2.2-1.3-2.4-4.1-1-5.8c1.4-1.7,4-1.8,5.6-0.3c0.8,0.8,1.2,1.7,1.2,2.8c0,1.5-0.7,2.5-1.9,3.3c1.6,0.5,2.8,1.3,3.7,2.6
			c0.9,1.3,1.3,2.8,1.3,4.4c3-2.3,5-6.8,3.7-11.4c-1.3-4.7-5.7-8-10.6-8C7,1.1,2.7,4.4,1.4,9.2c-1.2,4.6,0.8,9,3.6,11.2
			C5.1,17,6.8,14.6,10,13.4z M12,22.9c0.5,0,1-0.1,1.5-0.1c1.6-0.2,3.1-0.8,4.5-1.7c0.1,0,0.1-0.1,0.1-0.2c0-0.6,0-1.2-0.1-1.8
			c-0.4-2.7-2.6-4.8-5.3-5.1c-2.8-0.3-5.4,1.3-6.4,3.8c-0.4,1-0.5,2-0.4,3c0,0.2,0.1,0.3,0.2,0.3C7.9,22.3,9.8,22.9,12,22.9z
			 M15.1,10.1c0-1.7-1.4-3.1-3.1-3.1c-1.7,0-3.1,1.4-3.1,3c0,1.7,1.4,3.1,3.1,3.1C13.7,13.2,15.1,11.8,15.1,10.1z"/>
		<path d="M12,24C12,24,12,24,12,24C5.4,24,0,18.6,0,12c0-3.2,1.3-6.2,3.5-8.5C5.8,1.2,8.8,0,12,0c0,0,0,0,0,0
			c3.2,0,6.2,1.3,8.5,3.5C22.8,5.8,24,8.8,24,12c0,3.2-1.3,6.2-3.5,8.5C18.2,22.8,15.2,24,12,24z M12,0.6c-3,0-5.9,1.2-8.1,3.3
			c-2.2,2.2-3.4,5-3.4,8.1c0,6.3,5.1,11.4,11.4,11.4c0,0,0,0,0,0c6.3,0,11.4-5.1,11.4-11.4c0-3.1-1.2-5.9-3.3-8.1
			C17.9,1.8,15,0.6,12,0.6C12,0.6,12,0.6,12,0.6z M12,23.2L12,23.2c-2.2,0-4.3-0.7-6.1-1.8c-0.2-0.1-0.3-0.3-0.3-0.6
			c0-0.9,0-2,0.5-3.1c0.5-1.3,1.4-2.4,2.7-3.1c1.2-0.7,2.6-1,4.1-0.9c1.3,0.1,2.6,0.8,3.7,1.7c1,1,1.7,2.2,1.9,3.6
			c0.1,0.5,0.1,0.9,0.1,1.4c0,0.2,0,0.3,0,0.5c0,0.2-0.1,0.4-0.3,0.5c-1.4,0.9-3,1.5-4.6,1.7c-0.3,0-0.7,0.1-1,0.1
			C12.3,23.2,12.2,23.2,12,23.2L12,23.2z M12,14.3c-2.4,0-4.6,1.4-5.5,3.7c-0.4,1-0.4,2-0.4,2.9c0,0.1,0,0.1,0.1,0.1
			C8,22,9.9,22.6,12,22.7c0.2,0,0.3,0,0.5,0c0.3,0,0.7,0,1-0.1c1.6-0.2,3-0.8,4.4-1.6c0,0,0,0,0,0c0-0.1,0-0.3,0-0.4
			c0-0.5,0-0.9-0.1-1.3c-0.4-2.5-2.5-4.5-5-4.8C12.5,14.3,12.3,14.3,12,14.3z M18.6,21.1l0-0.6c0-1.6-0.4-3-1.2-4.2
			c-0.9-1.2-2.1-2.1-3.6-2.5l-0.6-0.2l0.5-0.3c1.2-0.8,1.8-1.8,1.8-3.1c0-1-0.4-1.9-1.1-2.6c-0.7-0.7-1.6-1-2.6-1
			c-1,0.1-1.9,0.5-2.5,1.3c-0.7,0.8-0.9,1.8-0.8,2.9c0.2,1,0.8,1.9,1.7,2.5l0.5,0.3l-0.5,0.2c-3.2,1.2-4.7,3.4-4.8,6.7l0,0.6
			l-0.5-0.3c-1.5-1.2-2.7-2.9-3.4-4.8c-0.8-2.2-0.9-4.5-0.3-6.7c1.3-4.9,5.7-8.4,10.8-8.4c2.4,0,4.9,0.8,6.8,2.3
			c2,1.5,3.4,3.6,4.1,5.9c0.6,2.2,0.5,4.6-0.2,6.8c-0.7,2-2,3.8-3.5,5L18.6,21.1z M14.5,13.3c1.4,0.5,2.5,1.4,3.4,2.6
			c0.8,1.2,1.3,2.5,1.3,4c2.5-2.2,4.4-6.2,3.1-10.8C21,4.5,16.8,1.3,11.9,1.3c-4.8,0-9,3.3-10.2,8c-1.1,4.4,0.7,8.4,3.1,10.5
			c0.2-3.1,1.8-5.2,4.6-6.5c-0.8-0.7-1.4-1.6-1.5-2.6C7.7,9.6,8.1,8.4,8.8,7.4C9.5,6.6,10.6,6,11.7,6c1.1-0.1,2.2,0.3,3.1,1.1
			c0.9,0.8,1.3,1.8,1.3,3C16.1,11.4,15.5,12.5,14.5,13.3z M12,13.5C12,13.5,12,13.5,12,13.5c-0.9,0-1.7-0.4-2.4-1
			c-0.6-0.6-1-1.5-1-2.4c0-1.8,1.5-3.3,3.4-3.3c0,0,0,0,0,0c0.9,0,1.7,0.4,2.4,1c0.6,0.6,1,1.5,1,2.4C15.3,12,13.8,13.5,12,13.5z
			 M12,7.3c-1.5,0-2.8,1.2-2.8,2.8c0,0.7,0.3,1.5,0.8,2c0.5,0.5,1.2,0.8,2,0.8c0,0,0,0,0,0c1.5,0,2.8-1.2,2.8-2.8v0
			c0-0.7-0.3-1.4-0.8-2C13.5,7.6,12.8,7.3,12,7.3C12,7.3,12,7.3,12,7.3z"/>
	</g>
</g>
</svg>
