<?xml version="1.0" encoding="utf-8"?>
<!-- Generator: Adobe Illustrator 24.0.0, SVG Export Plug-In . SVG Version: 6.00 Build 0)  -->
<svg version="1.1" id="Capa_1" xmlns="http://www.w3.org/2000/svg" xmlns:xlink="http://www.w3.org/1999/xlink" x="0px" y="0px"
	 viewBox="0 0 24 24" style="enable-background:new 0 0 24 24;" xml:space="preserve">
<g>
	<g>
		<path d="M12.2,10.3h6c0.1,0,0.2,0,0.3-0.1c0.1-0.1,0.1-0.2,0.1-0.3V7.3c0-0.1,0-0.2-0.1-0.3c-0.1-0.1-0.2-0.1-0.3-0.1h-6
			c-0.1,0-0.2,0-0.3,0.1c-0.1,0.1-0.1,0.2-0.1,0.3v2.6c0,0.1,0,0.2,0.1,0.3C12,10.2,12.1,10.3,12.2,10.3z"/>
		<path d="M12.2,3.4h3.4c0.1,0,0.2,0,0.3-0.1C16,3.2,16.1,3.1,16.1,3V0.4c0-0.1,0-0.2-0.1-0.3C15.9,0,15.8,0,15.6,0h-3.4
			c-0.1,0-0.2,0-0.3,0.1c-0.1,0.1-0.1,0.2-0.1,0.3V3c0,0.1,0,0.2,0.1,0.3C12,3.4,12.1,3.4,12.2,3.4z"/>
		<path d="M9.2,18.9H6.6V0.4c0-0.1,0-0.2-0.1-0.3C6.4,0,6.3,0,6.2,0H3.6C3.5,0,3.4,0,3.3,0.1C3.3,0.2,3.2,0.3,3.2,0.4v18.4H0.6
			c-0.2,0-0.3,0.1-0.4,0.3c-0.1,0.2,0,0.3,0.1,0.5l4.3,4.3C4.7,24,4.8,24,4.9,24c0.1,0,0.2,0,0.3-0.1l4.3-4.3
			c0.1-0.1,0.1-0.2,0.1-0.3c0-0.1,0-0.2-0.1-0.3C9.4,18.9,9.3,18.9,9.2,18.9z"/>
		<path d="M23.7,20.7c-0.1-0.1-0.2-0.1-0.3-0.1H12.2c-0.1,0-0.2,0-0.3,0.1c-0.1,0.1-0.1,0.2-0.1,0.3v2.6c0,0.1,0,0.2,0.1,0.3
			C12,24,12.1,24,12.2,24h11.1c0.1,0,0.2,0,0.3-0.1c0.1-0.1,0.1-0.2,0.1-0.3V21C23.8,20.9,23.8,20.8,23.7,20.7z"/>
		<path d="M12.2,17.1h8.6c0.1,0,0.2,0,0.3-0.1c0.1-0.1,0.1-0.2,0.1-0.3v-2.6c0-0.1,0-0.2-0.1-0.3c-0.1-0.1-0.2-0.1-0.3-0.1h-8.6
			c-0.1,0-0.2,0-0.3,0.1c-0.1,0.1-0.1,0.2-0.1,0.3v2.6c0,0.1,0,0.2,0.1,0.3C12,17.1,12.1,17.1,12.2,17.1z"/>
	</g>
</g>
</svg>
