<?xml version="1.0" encoding="utf-8"?>
<!-- Generator: Adobe Illustrator 24.0.0, SVG Export Plug-In . SVG Version: 6.00 Build 0)  -->
<svg version="1.1" id="Layer_1" xmlns="http://www.w3.org/2000/svg" xmlns:xlink="http://www.w3.org/1999/xlink" x="0px" y="0px"
	 viewBox="0 0 24 24" style="enable-background:new 0 0 24 24;" xml:space="preserve">
<path d="M12,22H4V2h14v4c0,0.6,0.4,1,1,1s1-0.4,1-1V1c0-0.6-0.4-1-1-1H3C2.4,0,2,0.4,2,1v22c0,0.6,0.4,1,1,1h9c0.6,0,1-0.4,1-1
	S12.5,22,12,22z"/>
<path d="M10.5,4h-4c-0.6,0-1,0.4-1,1s0.4,1,1,1h4c0.6,0,1-0.4,1-1S11,4,10.5,4z"/>
<path d="M10.5,7.5h-4c-0.6,0-1,0.4-1,1s0.4,1,1,1h4c0.6,0,1-0.4,1-1S11,7.5,10.5,7.5z"/>
<path d="M10.5,11h-4c-0.6,0-1,0.4-1,1s0.4,1,1,1h4c0.6,0,1-0.4,1-1S11,11,10.5,11z"/>
<path d="M10.5,14.5h-4c-0.6,0-1,0.4-1,1s0.4,1,1,1h4c0.6,0,1-0.4,1-1S11,14.5,10.5,14.5z"/>
<path d="M14.5,4c-0.6,0-1,0.4-1,1s0.4,1,1,1h1c0.6,0,1-0.4,1-1s-0.4-1-1-1H14.5z"/>
<path d="M15.5,9.5c0.6,0,1-0.4,1-1s-0.4-1-1-1h-1c-0.6,0-1,0.4-1,1s0.4,1,1,1H15.5z"/>
<path d="M22.4,12.4c-0.7-0.4-1.5-0.5-2.3-0.2c-0.4,0.1-0.8,0.3-1.1,0.6c-0.3-0.3-0.7-0.5-1.1-0.6c-0.8-0.2-1.6-0.2-2.3,0.2
	c-1.5,0.8-2,2.7-1.3,4.2c0.6,1.2,3.4,3.7,4,4.1c0,0,0,0,0,0c0,0,0,0,0.1,0c0,0,0.1,0,0.1,0.1c0,0,0,0,0.1,0c0,0,0.1,0,0.1,0
	c0,0,0,0,0.1,0c0.1,0,0.1,0,0.2,0h0h0c0.1,0,0.1,0,0.2,0c0,0,0,0,0.1,0c0,0,0.1,0,0.1,0c0,0,0,0,0.1,0c0,0,0.1,0,0.1-0.1
	c0,0,0,0,0.1,0c0,0,0,0,0,0c0.6-0.5,3.4-3,4-4.2C24.4,15.1,23.8,13.2,22.4,12.4z M21.8,15.7c-0.2,0.5-1.6,1.8-2.9,3
	c-1.3-1.2-2.6-2.5-2.9-3c-0.3-0.6-0.1-1.3,0.4-1.6c0.2-0.1,0.5-0.2,0.8-0.1c0.3,0.1,0.5,0.3,0.6,0.6c0,0,0,0.1,0,0.1c0,0,0,0,0,0
	c0,0,0,0.1,0,0.1c0,0,0,0.1,0,0.1c0,0,0,0.1,0.1,0.1c0,0,0,0.1,0.1,0.1c0,0,0,0.1,0.1,0.1c0,0,0,0,0.1,0.1c0,0,0.1,0,0.1,0.1
	c0,0,0.1,0,0.1,0c0,0,0.1,0,0.1,0c0,0,0.1,0,0.1,0c0,0,0,0,0,0c0,0,0,0,0,0c0,0,0.1,0,0.1,0c0,0,0.1,0,0.1,0c0,0,0.1,0,0.1,0
	c0,0,0.1,0,0.1,0c0,0,0,0,0,0c0,0,0,0,0,0c0,0,0.1,0,0.1,0c0,0,0.1,0,0.1,0c0,0,0.1,0,0.1,0c0,0,0.1,0,0.1-0.1c0,0,0,0,0.1-0.1
	c0,0,0,0,0.1-0.1c0,0,0,0,0.1-0.1c0,0,0-0.1,0.1-0.1c0,0,0-0.1,0-0.1c0,0,0-0.1,0-0.1c0,0,0,0,0,0c0,0,0-0.1,0-0.1
	c0.1-0.3,0.4-0.5,0.6-0.6c0.3-0.1,0.5-0.1,0.8,0.1C21.9,14.4,22.1,15.1,21.8,15.7z"/>
</svg>
