<?xml version="1.0" encoding="utf-8"?>
<!-- Generator: Adobe Illustrator 24.0.0, SVG Export Plug-In . SVG Version: 6.00 Build 0)  -->
<svg version="1.1" id="Layer_1" xmlns="http://www.w3.org/2000/svg" xmlns:xlink="http://www.w3.org/1999/xlink" x="0px" y="0px"
	 viewBox="0 0 24 24" style="enable-background:new 0 0 24 24;" xml:space="preserve">
<g>
	<g>
		<path d="M6.1,5.5c1.6,0,3.2,0,4.8,0c4.1,0,8.2,0,12.4,0c0.6,0,0.8,0.2,0.6,0.8c-0.7,2.6-1.3,5.3-2,7.9c-0.1,0.5-0.2,0.6-0.7,0.6
			c-4.1,0-8.2,0-12.3,0c-0.1,0-0.3,0-0.4,0c0.2,0.5,0.3,1,0.7,1.3c0.2,0.2,0.6,0.2,0.8,0.2c3.1,0,6.3,0,9.4,0c0.4,0,0.9,0,1.3,0
			c0.4,0,0.6,0.2,0.6,0.5c0,0.3-0.2,0.5-0.6,0.5c-3.6,0-7.3,0-10.9,0c-0.9,0-1.6-0.4-1.9-1.2c-0.3-0.7-0.5-1.5-0.8-2.3
			c-0.1-0.4-0.2-0.7-0.3-1.1c-0.7,0-1.4,0-2.1,0c-0.3,0-0.6,0-0.9,0c-0.4,0-0.6-0.2-0.6-0.5c0-0.3,0.2-0.5,0.6-0.5
			c0.8,0,1.6,0,2.4,0c0.1,0,0.2,0,0.4,0c-0.1-0.4-0.2-0.7-0.3-1c-0.3,0-0.6,0-0.8,0c-0.4,0-0.7-0.2-0.7-0.5c0-0.3,0.2-0.5,0.7-0.5
			c0.2,0,0.4,0,0.6,0C6,9.3,5.9,9,5.8,8.6c-0.3,0-0.5,0-0.8,0c-1.1,0-2.1,0-3.2,0c-0.4,0-0.7-0.2-0.7-0.5c0-0.3,0.2-0.5,0.7-0.5
			c1.2,0,2.4,0,3.7,0C5.3,6.9,5.2,6.2,5,5.5C4.8,4.9,4.7,4.3,4.4,3.8C4.2,3.2,3.8,2.9,3.1,3C2.3,3,1.5,3,0.8,3
			C0.4,3,0.1,2.8,0.1,2.4c0-0.3,0.2-0.5,0.6-0.5c0.8,0,1.7,0,2.5,0c0.9,0,1.6,0.4,2,1.2C5.5,3.8,5.7,4.5,6,5.2
			C6,5.3,6.1,5.4,6.1,5.5z M22.7,6.6c-5.5,0-10.9,0-16.4,0c0.1,0.4,0.2,0.7,0.3,1c0.2,0,0.3,0,0.4,0c0.8,0,1.6,0,2.4,0
			c0.3,0,0.5,0.2,0.5,0.5c0,0.3-0.2,0.5-0.5,0.5c-0.1,0-0.2,0-0.3,0c-0.7,0-1.5,0-2.3,0C7,9,7,9.3,7.1,9.7c0.6,0,1.1,0,1.7,0
			c0.4,0,0.6,0.2,0.6,0.5c0,0.3-0.2,0.5-0.6,0.5c-0.5,0-0.9,0-1.4,0c0.1,0.4,0.2,0.7,0.3,1c0.9,0,1.8,0,2.7,0c0.4,0,0.6,0.2,0.6,0.5
			c0,0.3-0.2,0.5-0.6,0.5c-0.4,0-0.8,0-1.2,0c-0.4,0-0.8,0-1.3,0c0.1,0.4,0.2,0.7,0.3,1c4.3,0,8.5,0,12.8,0
			C21.5,11.4,22.1,9,22.7,6.6z"/>
		<path d="M15.4,17.6c-1.8,0-3.7,0-5.5,0c-0.9,0-1.7-0.5-2.1-1.3c-0.3-0.6-0.5-1.2-0.6-1.8C7.1,14.3,7,14.1,7,13.9
			c-0.1-0.2-0.1-0.5-0.2-0.8c0-0.1,0-0.2-0.1-0.3l-2,0c-0.1,0-0.2,0-0.3,0c-0.2,0-0.4,0-0.6,0c-0.2,0-0.4-0.1-0.6-0.2
			c-0.1-0.1-0.2-0.3-0.2-0.4c0-0.4,0.3-0.6,0.7-0.6c0.6,0,1.1,0,1.7,0c0.2,0,0.5,0,0.7,0h0.2l-0.2-0.8l-0.2,0c-0.2,0-0.4,0-0.6,0
			c-0.7,0-0.8-0.4-0.8-0.6c0-0.2,0.1-0.3,0.2-0.4c0.1-0.1,0.4-0.2,0.7-0.2c0.1,0,0.2,0,0.4,0l0,0L5.7,8.8l-1.6,0c-0.8,0-1.5,0-2.3,0
			c-0.3,0-0.5-0.1-0.6-0.2C1.1,8.4,1,8.3,1,8.1c0-0.4,0.3-0.6,0.8-0.6c0.9,0,1.7,0,2.6,0l0.9,0c0-0.2-0.1-0.3-0.1-0.5
			C5.1,6.5,5,6,4.9,5.5C4.7,4.8,4.5,4.3,4.3,3.8C4.1,3.3,3.7,3.1,3.1,3.1c-0.6,0-1.1,0-1.7,0c-0.2,0-0.4,0-0.7,0
			C0.3,3.1,0,2.8,0,2.5C0,2.3,0.1,2.1,0.2,2c0.1-0.1,0.3-0.2,0.6-0.2c0.6,0,1.2,0,1.8,0l0.7,0c1,0,1.7,0.4,2.1,1.2
			c0.2,0.5,0.4,1,0.6,1.5C6,4.7,6,4.9,6.1,5.2c0,0.1,0,0.1,0.1,0.2c0,0,0,0,0,0l7.3,0c3.2,0,6.5,0,9.7,0c0.3,0,0.5,0.1,0.7,0.2
			C24,5.8,24,6.1,24,6.4c-0.7,2.9-1.4,5.5-2,7.9c-0.1,0.5-0.3,0.7-0.8,0.7c-3.1,0-6.3,0-9.4,0l-3.1,0c0.1,0.4,0.3,0.8,0.6,1.1
			c0.2,0.1,0.5,0.2,0.8,0.2c2.5,0,5,0,7.4,0c0.8,0,1.6,0,2.4,0c0.3,0,0.6,0,0.9,0c0.2,0,0.4,0.1,0.6,0.2c0.1,0.1,0.2,0.3,0.2,0.4
			c0,0.4-0.3,0.6-0.7,0.6l-0.7,0C18.5,17.6,16.9,17.6,15.4,17.6z M6.2,12.6h0.7l0,0.1C7,12.9,7,13,7,13.1c0.1,0.3,0.1,0.5,0.2,0.7
			c0.1,0.2,0.1,0.4,0.2,0.5C7.6,15,7.8,15.6,8,16.1c0.3,0.7,1,1.1,1.8,1.1c3.4,0,6.8,0,10.1,0l0.7,0c0.3,0,0.5-0.1,0.5-0.4
			c0-0.1,0-0.2-0.1-0.3c-0.1-0.1-0.2-0.1-0.4-0.1c-0.3,0-0.6,0-0.9,0c-0.8,0-1.6,0-2.4,0c-2.4,0-4.9,0-7.4,0c-0.3,0-0.7-0.1-0.9-0.3
			c-0.4-0.3-0.6-0.8-0.7-1.2l-0.1-0.3l3.4,0c3.1,0,6.3,0,9.4,0c0.4,0,0.5-0.1,0.6-0.5c0.6-2.5,1.3-5.1,2-7.9c0.1-0.2,0.1-0.4,0-0.5
			c-0.1-0.1-0.2-0.1-0.5-0.1c-3.2,0-6.5,0-9.7,0L6,5.7l0-0.1c0,0,0-0.1,0-0.1c0-0.1,0-0.1-0.1-0.2C5.8,5,5.7,4.8,5.7,4.6
			c-0.2-0.5-0.3-1-0.6-1.5c-0.3-0.7-1-1.1-1.9-1.1l-0.7,0c-0.6,0-1.2,0-1.8,0c-0.2,0-0.3,0-0.4,0.1C0.3,2.3,0.3,2.3,0.3,2.4
			c0,0.3,0.3,0.4,0.5,0.4c0.2,0,0.5,0,0.7,0c0.5,0,1.1,0,1.6,0c0.7,0,1.2,0.3,1.5,0.9c0.2,0.5,0.4,1,0.6,1.7c0.1,0.5,0.3,1,0.4,1.5
			c0.1,0.2,0.1,0.4,0.2,0.7l0,0.2l-1.2,0c-0.9,0-1.8,0-2.6,0C1.3,7.7,1.3,8,1.3,8.1c0,0.1,0,0.2,0.1,0.3c0.1,0.1,0.2,0.1,0.4,0.1
			c0.8,0,1.5,0,2.3,0l1.8,0l0.3,1.3l-0.4,0c-0.1,0-0.3,0-0.4,0C5.2,9.8,5.1,9.9,5,9.9c-0.1,0.1-0.1,0.1-0.1,0.3c0,0.1,0,0.4,0.6,0.4
			c0.2,0,0.4,0,0.6,0l0.4,0l0.3,1.3H6.2c-0.2,0-0.5,0-0.7,0c-0.6,0-1.1,0-1.7,0c-0.3,0-0.5,0.1-0.5,0.4c0,0.1,0,0.2,0.1,0.3
			c0.1,0.1,0.2,0.1,0.4,0.1c0.2,0,0.4,0,0.6,0c0.1,0,0.2,0,0.3,0L6.2,12.6z M21,13.9H8l-0.3-1.3l1.5,0c0.1,0,0.2,0,0.4,0
			c0.3,0,0.5,0,0.8,0c0.2,0,0.5-0.1,0.5-0.4c0-0.1,0-0.2-0.1-0.3c-0.1-0.1-0.2-0.1-0.4-0.1c-0.6,0-1.3,0-1.9,0l-0.9,0l-0.3-1.3
			l0.6,0c0.3,0,0.6,0,1,0c0.2,0,0.3,0,0.4-0.1c0.1-0.1,0.1-0.2,0.1-0.3c0-0.3-0.2-0.4-0.5-0.4c-0.4,0-0.8,0-1.2,0L7,9.8L6.7,8.5h0.7
			c0.6,0,1.1,0,1.7,0c0,0,0.1,0,0.1,0c0.1,0,0.2,0,0.2,0c0.2,0,0.4-0.2,0.4-0.4c0-0.2-0.2-0.4-0.4-0.4c-0.6,0-1.1,0-1.7,0
			c-0.2,0-0.5,0-0.7,0H6.5L6.2,6.5h16.7L21,13.9z M8.2,13.7h12.6l1.7-6.9h-16l0.2,0.8H7c0.2,0,0.5,0,0.7,0c0.6,0,1.1,0,1.7,0
			c0.4,0,0.6,0.3,0.7,0.6c0,0.4-0.2,0.6-0.6,0.7c-0.1,0-0.2,0-0.3,0c0,0-0.1,0-0.1,0c-0.6,0-1.1,0-1.7,0H7l0.2,0.8l0.4,0
			c0.4,0,0.8,0,1.2,0c0.5,0,0.8,0.2,0.8,0.6c0,0.2-0.1,0.3-0.2,0.4c-0.1,0.1-0.3,0.2-0.6,0.2c-0.3,0-0.6,0-1,0l-0.3,0l0.2,0.8l0.7,0
			c0.6,0,1.3,0,1.9,0c0.3,0,0.5,0.1,0.6,0.2c0.1,0.1,0.2,0.3,0.2,0.4c0,0.4-0.3,0.6-0.7,0.6c-0.3,0-0.5,0-0.8,0c-0.1,0-0.2,0-0.4,0
			l-1.1,0L8.2,13.7z"/>
	</g>
	<g>
		<path d="M8.4,20c0-1.1,0.9-2,2.1-2c1.1,0,2.1,0.9,2.1,2.1c0,1.1-0.9,2.1-2.1,2.1C9.3,22.1,8.4,21.1,8.4,20z M10.5,21
			c0.6,0,1-0.5,1-1c0-0.6-0.5-1-1-1c-0.6,0-1,0.5-1,1.1C9.4,20.6,9.9,21,10.5,21z"/>
		<path d="M10.5,22.2C10.5,22.2,10.4,22.2,10.5,22.2c-1.2,0-2.2-1-2.2-2.2l0,0c0-1.2,1-2.2,2.2-2.2c0,0,0,0,0,0c1.2,0,2.2,1,2.2,2.2
			c0,0.6-0.2,1.1-0.6,1.5C11.6,22,11,22.2,10.5,22.2z M8.5,20c0,1.1,0.9,2,1.9,2c0.5,0,1-0.2,1.4-0.6c0.4-0.4,0.6-0.9,0.6-1.4
			c0-1.1-0.9-1.9-1.9-1.9c0,0,0,0,0,0C9.4,18.1,8.5,18.9,8.5,20L8.5,20z M10.5,21.2c-0.6,0-1.2-0.5-1.2-1.1c0-0.3,0.1-0.6,0.3-0.8
			c0.2-0.2,0.5-0.3,0.8-0.3c0,0,0,0,0,0c0.6,0,1.2,0.5,1.2,1.2C11.6,20.6,11.1,21.2,10.5,21.2L10.5,21.2
			C10.5,21.2,10.5,21.2,10.5,21.2z M10.5,19.1c-0.2,0-0.5,0.1-0.6,0.3c-0.2,0.2-0.3,0.4-0.3,0.7c0,0.5,0.4,0.9,0.9,0.9c0,0,0,0,0,0
			h0c0.5,0,0.9-0.4,0.9-0.9C11.4,19.5,11,19.1,10.5,19.1C10.5,19.1,10.5,19.1,10.5,19.1z"/>
	</g>
	<g>
		<path d="M18.7,22.1c-1.1,0-2.1-0.9-2.1-2.1c0-1.1,0.9-2.1,2.1-2c1.1,0,2.1,0.9,2,2.1C20.8,21.2,19.8,22.1,18.7,22.1z M18.7,19
			c-0.6,0-1,0.5-1,1c0,0.6,0.4,1,1,1c0.6,0,1.1-0.5,1.1-1C19.8,19.4,19.3,19,18.7,19z"/>
		<path d="M18.7,22.2C18.7,22.2,18.7,22.2,18.7,22.2c-1.2,0-2.2-1-2.2-2.2c0-0.6,0.2-1.1,0.7-1.5c0.4-0.4,1-0.6,1.6-0.6
			c0.6,0,1.1,0.2,1.5,0.7c0.4,0.4,0.6,1,0.6,1.6C20.9,21.2,19.9,22.2,18.7,22.2z M18.7,18.1c-0.5,0-1,0.2-1.4,0.6
			C17,19,16.8,19.5,16.8,20c0,1.1,0.9,1.9,1.9,2l0,0c0,0,0,0,0,0c1,0,1.9-0.9,1.9-1.9c0-0.5-0.2-1-0.6-1.4
			C19.7,18.3,19.3,18.1,18.7,18.1C18.7,18.1,18.7,18.1,18.7,18.1z M18.7,21.2C18.7,21.2,18.7,21.2,18.7,21.2c-0.7,0-1.2-0.5-1.2-1.2
			c0-0.6,0.5-1.1,1.2-1.1c0,0,0,0,0,0c0.6,0,1.2,0.5,1.2,1.2c0,0.3-0.1,0.6-0.3,0.8C19.3,21,19,21.2,18.7,21.2z M18.7,19.1
			c-0.5,0-0.9,0.4-0.9,0.9c0,0.5,0.4,0.9,0.9,0.9c0.2,0,0.5-0.1,0.7-0.3c0.2-0.2,0.3-0.4,0.3-0.6C19.6,19.5,19.2,19.1,18.7,19.1
			L18.7,19.1C18.7,19.1,18.7,19.1,18.7,19.1z"/>
	</g>
	<g>
		<path d="M2.2,10.7c-0.5,0-1,0-1.4,0c-0.4,0-0.6-0.2-0.6-0.5c0-0.3,0.2-0.5,0.6-0.5c1,0,2,0,3,0c0.3,0,0.6,0.2,0.6,0.5
			c0,0.3-0.2,0.5-0.6,0.5C3.2,10.7,2.7,10.7,2.2,10.7z"/>
		<path d="M1.3,10.8c-0.2,0-0.4,0-0.6,0c-0.4,0-0.7-0.3-0.7-0.6C0,10,0.1,9.9,0.2,9.8c0.1-0.1,0.3-0.2,0.5-0.2c1,0,2,0,3,0
			c0.2,0,0.4,0.1,0.5,0.2c0.1,0.1,0.2,0.3,0.2,0.5c0,0.4-0.3,0.6-0.7,0.6c-0.3,0-0.7,0-1,0c-0.2,0-0.3,0-0.5,0l0,0
			c-0.1,0-0.3,0-0.4,0C1.6,10.8,1.4,10.8,1.3,10.8z M2.2,9.8c-0.5,0-1,0-1.5,0c-0.1,0-0.3,0-0.3,0.1c-0.1,0.1-0.1,0.2-0.1,0.3
			c0,0.2,0.2,0.4,0.5,0.4c0.3,0,0.7,0,1,0c0.1,0,0.3,0,0.4,0l0,0c0.2,0,0.3,0,0.5,0c0.3,0,0.7,0,1,0c0.3,0,0.5-0.1,0.5-0.4
			c0-0.1,0-0.2-0.1-0.3C4,9.9,3.8,9.8,3.7,9.8C3.2,9.8,2.7,9.8,2.2,9.8z"/>
	</g>
</g>
</svg>
